<svg id="Layer_1" data-name="Layer 1" xmlns="http://www.w3.org/2000/svg" viewBox="0 0 512 512"><title>id_card</title><path d="M512,256c0,141.38-114.61,256-256,256S0,397.38,0,256,114.61,0,256,0,512,114.62,512,256Z" fill="#404041"/><path d="M28,139.52,139.52,28A257.1,257.1,0,0,0,28,139.52Z" fill="#4d4d4f"/><path d="M179.06,11.77,11.77,179.06a254.14,254.14,0,0,0-6.43,24.69L203.75,5.34A253.94,253.94,0,0,0,179.06,11.77Z" fill="#4d4d4f"/><path d="M231.24,1.2l-230,230Q.27,240.84.07,250.64L250.63.07Q240.84.27,231.24,1.2Z" fill="#4d4d4f"/><path d="M273.44.6.6,273.43q.56,8.39,1.66,16.63L290.05,2.26Q281.83,1.17,273.44.6Z" fill="#4d4d4f"/><path d="M309.94,5.71,5.71,309.95q1.59,7.41,3.6,14.66L324.6,9.31Q317.35,7.3,309.94,5.71Z" fill="#4d4d4f"/><path d="M342.32,14.93,14.94,342.33Q17.32,349,20,355.47L355.46,20Q349,17.31,342.32,14.93Z" fill="#4d4d4f"/><path d="M371.41,27.44l-344,344q3,6,6.39,11.86L383.28,33.83Q377.44,30.48,371.41,27.44Z" fill="#4d4d4f"/><path d="M397.69,42.77,42.77,397.69q3.63,5.46,7.53,10.72L408.42,50.31Q403.16,46.4,397.69,42.77Z" fill="#4d4d4f"/><path d="M421.43,60.64,60.65,421.43q4.18,4.93,8.6,9.65L431.08,69.25Q426.36,64.82,421.43,60.64Z" fill="#4d4d4f"/><path d="M442.75,80.91,80.92,442.75q4.72,4.42,9.65,8.6L451.37,90.58Q447.18,85.64,442.75,80.91Z" fill="#4d4d4f"/><path d="M461.69,103.58,103.58,461.69q5.26,3.91,10.73,7.54L469.23,114.31Q465.59,108.85,461.69,103.58Z" fill="#4d4d4f"/><path d="M478.17,128.72,128.71,478.16q5.84,3.35,11.88,6.4l344-344Q481.51,134.56,478.17,128.72Z" fill="#4d4d4f"/><path d="M492,156.53,156.53,492q6.48,2.73,13.14,5.11L497.06,169.67Q494.68,163,492,156.53Z" fill="#4d4d4f"/><path d="M502.69,187.41,187.4,502.69q7.24,2,14.66,3.6L506.29,202.06Q504.7,194.65,502.69,187.41Z" fill="#4d4d4f"/><path d="M509.74,222,221.94,509.74q8.23,1.09,16.62,1.66L511.4,238.56Q510.83,230.18,509.74,222Z" fill="#4d4d4f"/><path d="M510.81,280.75q.92-9.59,1.13-19.38L261.37,511.93q9.79-.2,19.39-1.13Z" fill="#4d4d4f"/><path d="M332.92,500.23,500.23,332.92a254,254,0,0,0,6.42-24.68L308.23,506.66A254.22,254.22,0,0,0,332.92,500.23Z" fill="#4d4d4f"/><path d="M484,372.49,372.48,484A257.12,257.12,0,0,0,484,372.49Z" fill="#4d4d4f"/><path d="M308.05,173.07c-.21-15.7,1.05-13.64-14.81-13.84a35.14,35.14,0,0,0-70.16,0c-15.54.27-14.73-2.19-14.71,12.9v24.35c0,6.63,0,8,6.83,8h84.72c8.2,0,8.13-2.12,8.13-9.72Zm-49.84-5.72a15,15,0,1,1,15.16-15A15.09,15.09,0,0,1,258.21,167.35ZM349,185.65H320.92v9.16c0,5.16,0,10.32-3.36,15.12-5.22,7.45-13.93,7.45-17.64,7.45H215.21c-3.42,0-11.4,0-16.36-6.79-3.32-4.56-3.32-9.37-3.32-14v-10.9H163A35.56,35.56,0,0,0,127.45,221V327A35.57,35.57,0,0,0,163,362.34H349A35.57,35.57,0,0,0,384.55,327V221A35.56,35.56,0,0,0,349,185.65Zm-88.4,57.59h84v9.1h-84Zm0,30.26H333v9.08H260.57ZM239.08,323s-8.38,4.27-15.51,3.46a160.25,160.25,0,0,1-26.23,2.39,121.46,121.46,0,0,1-23.77-2.39c-.38,0-.77.08-1.15.09-2.16.16-6.53-.1-14.08-3.13,0,0,0-.1,0-.31a.94.94,0,0,0-.25-.12c-4.4-11.92,2.6-34.84,8.39-35.28a1.07,1.07,0,0,0,.18,0,7,7,0,0,1,1-.21c1.39-.16,2.64-.34,3.7-.53,3.18-.69,6.05-1.62,7.33-2a4.31,4.31,0,0,0,.39-.25s-.12-.89,6.9-5.06c0,0,.44-5.06-.13-7.41s-2-4.28-2.71-7.88c0,0-2.26.32-3.73-4.5s.66-7,.66-6.61v-.34s-.66-7.3-.56-9.77,2.59-8.87,8.13-9.77c0,0,12.23-9.08,24.28.34,7.62,6,5.92,19.65,5.92,19.65s2.05,1.35.79,5.73-2.94,4.95-4,5.39c0,0-1.12,5.73-3.85,9.22a48.14,48.14,0,0,0,.14,5.84s6.76,3.7,6.88,5.17a60.79,60.79,0,0,0,12.89,3C236.46,288.15,243.49,311.07,239.08,323Zm117.7-10.16H260.57v-9.1h96.21Z" fill="#fff" fill-rule="evenodd"/></svg>